<?xml version="1.0" encoding="UTF-8"?>
<svg id="Ebene_2" data-name="Ebene 2" xmlns="http://www.w3.org/2000/svg" viewBox="0 0 23 26.88">
  <defs>
    <style>
      .cls-1 {
        fill: #1d1d1b;
      }

      .cls-2 {
        fill: none;
        stroke: #1d1d1b;
        stroke-linecap: round;
        stroke-linejoin: round;
        stroke-width: 3px;
      }
    </style>
  </defs>
  <g id="Ebene_1-2" data-name="Ebene 1">
    <rect class="cls-2" x="1.5" y="5.38" width="20" height="20"/>
    <line class="cls-2" x1="5.88" y1="1.5" x2="5.88" y2="7.65"/>
    <line class="cls-2" x1="17.15" y1="1.5" x2="17.15" y2="7.65"/>
    <line class="cls-2" x1="11.5" y1="1.5" x2="11.5" y2="7.65"/>
    <path class="cls-1" d="M6.39,20.42v-7.4c0-.27.22-.49.49-.49h2.71c.22,0,.41.14.47.35l.65,2.27c.06.22.14.52.22.88.08.36.17.75.25,1.16.08.41.16.8.23,1.18s.12.7.16.96h-.46c.04-.26.1-.58.16-.96s.14-.77.23-1.18c.08-.41.17-.8.25-1.16.08-.36.16-.65.22-.88l.64-2.26c.06-.21.25-.36.47-.36h2.71c.27,0,.49.22.49.49v7.4c0,.27-.22.49-.49.49h-1.31c-.27,0-.49-.22-.49-.49v-2.75c0-.19,0-.44.01-.76,0-.31.02-.66.03-1.03s.02-.75.03-1.13c0-.38.01-.73.01-1.05h.16c-.07.35-.15.71-.24,1.09-.09.38-.18.75-.27,1.12-.09.36-.18.7-.26,1s-.15.56-.21.76l-.87,2.89c-.06.21-.25.35-.47.35h-1.16c-.22,0-.41-.14-.47-.35l-.88-2.89c-.06-.2-.13-.46-.22-.76s-.17-.64-.27-1c-.09-.36-.19-.74-.28-1.12-.09-.38-.17-.75-.25-1.09h.19c0,.32,0,.67.01,1.05,0,.38.02.76.03,1.13s.02.72.03,1.03c0,.31.01.57.01.76v2.75c0,.27-.22.49-.49.49h-1.31c-.27,0-.49-.22-.49-.49Z"/>
  </g>
</svg>