<?xml version="1.0" encoding="UTF-8"?>
<svg id="Ebene_2" data-name="Ebene 2" xmlns="http://www.w3.org/2000/svg" viewBox="0 0 23 26.88">
  <defs>
    <style>
      .cls-1 {
        fill: #1d1d1b;
      }

      .cls-2 {
        fill: none;
        stroke: #1d1d1b;
        stroke-linecap: round;
        stroke-linejoin: round;
        stroke-width: 3px;
      }
    </style>
  </defs>
  <g id="Ebene_1-2" data-name="Ebene 1">
    <rect class="cls-2" x="1.5" y="5.38" width="20" height="20"/>
    <line class="cls-2" x1="5.88" y1="1.5" x2="5.88" y2="7.65"/>
    <line class="cls-2" x1="17.15" y1="1.5" x2="17.15" y2="7.65"/>
    <line class="cls-2" x1="11.5" y1="1.5" x2="11.5" y2="7.65"/>
    <path class="cls-1" d="M11.21,20.85c-.98,0-1.73-.24-2.26-.71-.53-.47-.79-1.15-.79-2.04v-.2c0-.05,0-.11,0-.16,0-.05,0-.09.04-.13.03-.03.07-.05.12-.06.04,0,.08,0,.12,0,.02,0,.04,0,.06,0h1.51c.06,0,.13,0,.19,0,.05,0,.11.02.15.06.08.08.06.21.06.31v.23c0,.3.07.53.21.68.14.15.33.23.59.23s.44-.08.58-.23c.14-.15.2-.38.2-.68v-5.37c0-.23.19-.41.41-.41h1.43c.23,0,.41.19.41.41v5.34c0,.88-.26,1.56-.79,2.03-.53.47-1.27.71-2.25.71Z"/>
  </g>
</svg>