<?xml version="1.0" encoding="UTF-8"?>
<svg id="Ebene_2" data-name="Ebene 2" xmlns="http://www.w3.org/2000/svg" viewBox="0 0 23 26.88">
  <defs>
    <style>
      .cls-1 {
        fill: #1d1d1b;
      }

      .cls-2 {
        fill: none;
        stroke: #1d1d1b;
        stroke-linecap: round;
        stroke-linejoin: round;
        stroke-width: 3px;
      }
    </style>
  </defs>
  <g id="Ebene_1-2" data-name="Ebene 1">
    <g>
      <rect class="cls-2" x="1.5" y="5.38" width="20" height="20"/>
      <line class="cls-2" x1="5.88" y1="1.5" x2="5.88" y2="7.65"/>
      <line class="cls-2" x1="17.15" y1="1.5" x2="17.15" y2="7.65"/>
      <line class="cls-2" x1="11.5" y1="1.5" x2="11.5" y2="7.65"/>
    </g>
    <path class="cls-1" d="M7.49,20.5l-2.05-7.74c-.08-.31.15-.62.48-.62h1.6c.23,0,.44.17.48.4l.62,2.99c.09.43.17.88.24,1.37s.14.98.21,1.46.14.94.21,1.37h-.49c.08-.43.16-.89.24-1.37s.16-.97.24-1.46.17-.95.27-1.37l.69-3c.05-.23.25-.38.48-.38h1.58c.23,0,.43.16.48.38l.69,3c.1.43.19.88.27,1.37s.16.98.24,1.46.16.94.24,1.37h-.5c.07-.43.15-.89.21-1.37s.14-.97.21-1.46.16-.95.24-1.37l.62-2.99c.05-.23.25-.39.48-.39h1.6c.32,0,.56.31.48.62l-2.05,7.74c-.06.22-.25.37-.48.37h-1.91c-.23,0-.43-.16-.48-.38l-.81-3.29c-.13-.55-.24-1.15-.33-1.8-.09-.65-.2-1.31-.33-1.97h.64c-.15.66-.26,1.31-.34,1.96-.08.65-.18,1.25-.32,1.81l-.8,3.29c-.05.22-.25.38-.48.38h-1.91c-.22,0-.42-.15-.48-.37Z"/>
  </g>
</svg>